<?xml version="1.0" encoding="UTF-8" standalone="no"?>
<svg
   xmlns:dc="http://purl.org/dc/elements/1.1/"
   xmlns:cc="http://creativecommons.org/ns#"
   xmlns:rdf="http://www.w3.org/1999/02/22-rdf-syntax-ns#"
   xmlns:svg="http://www.w3.org/2000/svg"
   xmlns="http://www.w3.org/2000/svg"
   xmlns:sodipodi="http://sodipodi.sourceforge.net/DTD/sodipodi-0.dtd"
   xmlns:inkscape="http://www.inkscape.org/namespaces/inkscape"
   viewBox="0 0 512.003 512.003"
   version="1.1"
   id="svg8"
   sodipodi:docname="doctor-white.svg"
   inkscape:version="0.92.4 (5da689c313, 2019-01-14)">
  <metadata
     id="metadata14">
    <rdf:RDF>
      <cc:Work
         rdf:about="">
        <dc:format>image/svg+xml</dc:format>
        <dc:type
           rdf:resource="http://purl.org/dc/dcmitype/StillImage" />
        <dc:title></dc:title>
      </cc:Work>
    </rdf:RDF>
  </metadata>
  <defs
     id="defs12" />
  <sodipodi:namedview
     pagecolor="#ffffff"
     bordercolor="#666666"
     borderopacity="1"
     objecttolerance="10"
     gridtolerance="10"
     guidetolerance="10"
     inkscape:pageopacity="0"
     inkscape:pageshadow="2"
     inkscape:window-width="1366"
     inkscape:window-height="731"
     id="namedview10"
     showgrid="false"
     inkscape:zoom="0.46093481"
     inkscape:cx="256.0015"
     inkscape:cy="256.0015"
     inkscape:window-x="0"
     inkscape:window-y="0"
     inkscape:window-maximized="1"
     inkscape:current-layer="svg8" />
  <path
     d="M207.9 160.32a7.5 7.5 0 00-7.5 7.5v8.02a7.5 7.5 0 1015 0v-8.02a7.5 7.5 0 00-7.5-7.5zM304.1 160.32a7.5 7.5 0 00-7.5 7.5v8.02a7.5 7.5 0 1015 0v-8.02a7.5 7.5 0 00-7.5-7.5zM285.39 218.67a7.5 7.5 0 00-10.6-.07c-2.74 2.7-9.3 5.85-18.79 5.85-9.48 0-16.04-3.15-18.78-5.85a7.5 7.5 0 10-10.53 10.67c6.46 6.38 17.41 10.18 29.31 10.18 11.9 0 22.86-3.8 29.32-10.18a7.5 7.5 0 00.07-10.6zM215.92 136.27H199.9a7.5 7.5 0 100 15h16.03a7.5 7.5 0 100-15zM312.11 136.27h-16.03a7.5 7.5 0 100 15h16.03a7.5 7.5 0 100-15z"
     id="path2"
     style="fill:#ffffff" />
  <path
     d="M416.63 357.24l-54.06-16.62a17.28 17.28 0 00-9.52-16.43l-33.44-16.71v-23.84a111.88 111.88 0 0047.02-76.25h4.46c14.62 0 27.16-10.86 28.54-24.73a27.53 27.53 0 00-15.9-27.82V71.63a55.66 55.66 0 00-55.58-55.6c-.04 0-.56 0-1.27 0C313.38 6.07 293.54 0 271.53 0c-46.85 0-68.37 9.76-93.29 21.06-13.31 6.04-27.08 12.28-46.59 17.99a7.5 7.5 0 00-4.81 10.09c.22.54 3.58 8.32 12.22 17.77-3.73 4.6-10.8 16.35-10.8 39.46v48.8c-8.63 4.12-14.93 12.27-15.89 21.86a27.66 27.66 0 006.97 21.29 27.6 27.6 0 0020.43 9.07h5.6c4.4 31.52 22 58.87 47.02 76.26v23.83l-33.43 16.71a17.28 17.28 0 00-9.53 16.43l-54.06 16.62a55.32 55.32 0 00-39.26 53.14v94.12a7.5 7.5 0 1015 0v-94.12a40.4 40.4 0 0128.67-38.8l56.23-17.3 9.93 13.24-11.28 11.28a23.5 23.5 0 00-4.4 27.16l21.46 42.94h-20.44v-8.53a7.5 7.5 0 10-15 0v8.53H103.7a7.5 7.5 0 00-7.5 7.5v48.1a7.5 7.5 0 007.5 7.5h80.16a7.5 7.5 0 007.5-7.5v-16.33l9.84 19.68a7.5 7.5 0 1013.41-6.7l-50.94-101.9a8.52 8.52 0 011.6-9.85l15.88-15.87a7.5 7.5 0 00.7-9.8l-17-22.66a2.29 2.29 0 01-.4-1.92c.1-.4.37-1.12 1.22-1.54l29.54-14.77 20.85 71.5a7.5 7.5 0 0014.4-4.2l-3.29-11.27a87.87 87.87 0 0057.66 0L256 477.71l-16.18-55.5a7.5 7.5 0 10-14.4 4.2l23.38 80.19a7.5 7.5 0 0014.4 0l53.6-183.76 29.54 14.77a2.29 2.29 0 011.22 1.54c.1.4.16 1.16-.4 1.92l-17 22.65a7.5 7.5 0 00.7 9.8l15.88 15.89a8.52 8.52 0 011.6 9.84l-50.95 101.9a7.5 7.5 0 0013.42 6.7l50.94-101.88a23.5 23.5 0 00-4.4-27.17l-11.28-11.28 9.92-13.23 56.23 17.29a40.39 40.39 0 0128.67 38.8v94.12a7.5 7.5 0 1015 0v-94.12a55.32 55.32 0 00-39.26-53.14zM176.36 497h-65.17v-33.1h25.08v.52a7.5 7.5 0 1015 0v-.52h25.09V497zm8.07-462.28C208.74 23.7 227.94 15 271.53 15c27.67 0 52.4 11.58 57.52 26.94a7.5 7.5 0 0014.23-4.75c-.43-1.3-.95-2.56-1.53-3.8a40.66 40.66 0 0127 38.24v80.68h-8.54a8.54 8.54 0 01-8.53-8.54v-8.01c0-34.77-25.17-60.35-26.25-61.42a7.51 7.51 0 00-7.56-1.85c-41.63 13.15-100.33 24.23-143.55 2.36-15.38-7.78-24.46-17.67-29.24-24.27 15.92-5.23 28.26-10.83 39.35-15.86zm120.19 276.32l-14.33 49.11a72.68 72.68 0 01-68.58 0l-14.32-49.1v-18.62A111.04 111.04 0 00256 303.58c17.41 0 33.9-4.01 48.61-11.15v18.61zM256 288.58c-53.32 0-96.7-43.38-96.7-96.7a7.5 7.5 0 10-15 0v.5h-4.53a12.57 12.57 0 01-12.47-13.85c.63-6.3 6.6-11.22 13.62-11.22h10.87a23.56 23.56 0 0023.54-23.54v-28.3a7.5 7.5 0 10-15 0v28.3c0 4.7-3.83 8.54-8.54 8.54h-8.53v-45.94c0-17.46 4.7-26.13 6.86-29.21a103.1 103.1 0 0016.24 10.47c17 8.86 37.23 13.77 60.13 14.58 26.84.97 57.52-3.74 91.24-13.97 5.95 7.2 18.95 25.47 18.95 47.52v8.01a23.56 23.56 0 0023.53 23.54h12.03a12.57 12.57 0 0112.47 13.86c-.63 6.29-6.61 11.22-13.62 11.22h-3.38v-.44a7.5 7.5 0 00-15 0c-.04 53.28-43.42 96.63-96.7 96.63z"
     id="path4"
     style="fill:#ffffff" />
  <path
     d="M408.3 452.91h-12.53v-12.54a7.5 7.5 0 10-15 0v12.54h-12.54a7.5 7.5 0 100 15h12.54v12.54a7.5 7.5 0 1015 0v-12.54h12.54a7.5 7.5 0 100-15z"
     id="path6"
     style="fill:#ffffff" />
</svg>
