<?xml version="1.0" encoding="UTF-8" standalone="no"?>
<svg
   xmlns:dc="http://purl.org/dc/elements/1.1/"
   xmlns:cc="http://creativecommons.org/ns#"
   xmlns:rdf="http://www.w3.org/1999/02/22-rdf-syntax-ns#"
   xmlns:svg="http://www.w3.org/2000/svg"
   xmlns="http://www.w3.org/2000/svg"
   xmlns:sodipodi="http://sodipodi.sourceforge.net/DTD/sodipodi-0.dtd"
   xmlns:inkscape="http://www.inkscape.org/namespaces/inkscape"
   width="512pt"
   height="512pt"
   viewBox="0 0 512 512"
   version="1.1"
   id="svg4"
   sodipodi:docname="molecular-white.svg"
   inkscape:version="0.92.4 (5da689c313, 2019-01-14)">
  <metadata
     id="metadata10">
    <rdf:RDF>
      <cc:Work
         rdf:about="">
        <dc:format>image/svg+xml</dc:format>
        <dc:type
           rdf:resource="http://purl.org/dc/dcmitype/StillImage" />
        <dc:title></dc:title>
      </cc:Work>
    </rdf:RDF>
  </metadata>
  <defs
     id="defs8" />
  <sodipodi:namedview
     pagecolor="#ffffff"
     bordercolor="#666666"
     borderopacity="1"
     objecttolerance="10"
     gridtolerance="10"
     guidetolerance="10"
     inkscape:pageopacity="0"
     inkscape:pageshadow="2"
     inkscape:window-width="1366"
     inkscape:window-height="731"
     id="namedview6"
     showgrid="false"
     inkscape:zoom="0.34570313"
     inkscape:cx="341.33333"
     inkscape:cy="341.33333"
     inkscape:window-x="0"
     inkscape:window-y="0"
     inkscape:window-maximized="1"
     inkscape:current-layer="svg4" />
  <path
     d="M457 349.13l29.8 17.28v85.5l-73.63 42.73-73.62-42.72v-85.5l73.62-42.7L444 341.6l7.55-13-38.38-22.28-81.13 47.08-73.62-42.72v-94.15l-34.93-20.27-7.55 13 27.44 15.92v85.5l-73.63 42.72-73.6-42.72v-85.5l73.6-42.72 33.18 19.26 7.54-13-33.2-19.27V75.3L88.63 23.87 0 75.3v43.1h15.02V83.94l73.62-42.7 73.62 42.7v85.5l-73.62 42.72-73.62-42.7V133.4H0v44.7l81.13 47.06v85.5L0 357.76v102.8l33.8 19.62 7.55-13-26.33-15.27v-85.5l73.62-42.7 73.62 42.7v85.5l-73.62 42.73-34.3-19.9-7.54 13L88.64 512l81.13-47.08L202.65 484l7.54-13-32.9-19.1v-85.5l73.6-42.7 73.63 42.7v85.5l-73.62 42.73-27.72-16.1-7.54 13L250.9 512l81.14-47.08L413.17 512l88.64-51.43v-102.8l-37.26-21.64zm0 0M244.9 131.2c17.2 0 32.02-10.24 38.73-24.94l34.72 8.3c-.54 3.3-.83 6.7-.83 10.14 0 21.65 11.04 40.76 27.78 52l-11.92 16.1c-4.5-1.6-9.33-2.5-14.36-2.5-23.48 0-42.57 19.1-42.57 42.58s19.1 42.57 42.57 42.57 42.57-19.1 42.57-42.57c0-13.02-5.9-24.7-15.13-32.5l12.43-16.8c6.63 2.4 13.77 3.72 21.22 3.72 34.5 0 62.6-28.08 62.6-62.6 0-12.15-3.5-23.5-9.52-33.1l13.9-12.7c6.46 3.96 14.05 6.24 22.16 6.24 23.47 0 42.57-19.1 42.57-42.57S492.73 0 469.26 0 426.7 19.1 426.7 42.57c0 9.9 3.4 19.04 9.12 26.3l-12.07 11c-11.3-10.98-26.68-17.77-43.63-17.77-25.8 0-48 15.7-57.57 38.02l-35.2-8.42c.07-1 .1-2.03.1-3.06 0-23.47-19.08-42.57-42.55-42.57s-42.57 19.1-42.57 42.57c0 23.48 19.1 42.57 42.57 42.57zM469.26 15.03c15.2 0 27.54 12.36 27.54 27.55S484.45 70.1 469.26 70.1c-15.2 0-27.55-12.34-27.55-27.53s12.37-27.55 27.56-27.55zm-122.7 217.86c0 15.2-12.35 27.54-27.54 27.54-15.2 0-27.55-12.35-27.55-27.54s12.36-27.55 27.55-27.55c15.2 0 27.54 12.36 27.54 27.55zm33.56-155.75c26.23 0 47.57 21.34 47.57 47.57s-21.35 47.58-47.58 47.58c-26.24 0-47.58-21.35-47.58-47.58 0-26.23 21.34-47.58 47.58-47.58zM244.9 61.1c15.2 0 27.54 12.36 27.54 27.54S260.1 116.2 244.9 116.2c-15.2 0-27.55-12.37-27.55-27.56S229.7 61.1 244.9 61.1zm0 0M305.76 445.43l-7.54-13-47.3 27.46-21.33-12.38-7.56 13 28.87 16.74zm0 0M196.04 445.45l7.54-13 13 7.54-7.54 12.98zm0 0M471.77 438.93v-63.86l-28.84-16.73-7.54 13 21.34 12.38v55.2zm0 0M409.4 356.28l7.54-13 13 7.54-7.55 13zm0 0M33.77 445.44l7.55-13 25.1 14.57-7.55 13zm0 0M71.86 467.55l7.54-13 13 7.54-7.54 13zm0 0M30.05 141.45h15.02v15.03H30.05zm0 0M30.05 96.93h15.02v29.5H30.05zm0 0M166 215.04l7.54-13 13 7.54-7.54 13zm0 0M228.37 297.7v-63.86l-28.83-16.73-7.54 13 21.34 12.4v55.2zm0 0M397.64 124.7h15.03c0-17.95-14.6-32.55-32.55-32.55v15.02c9.66 0 17.52 7.87 17.52 17.53zm0 0"
     id="path2"
     style="fill:#ffffff" />
</svg>
